<svg xmlns="http://www.w3.org/2000/svg" viewBox="0 0 32 32" fill="none">
  <rect width="32" height="32" rx="8" fill="#050507"/>
  <circle cx="16" cy="16" r="10" fill="#a3e635" opacity="0.15"/>
  <path d="M16 8 C12 8 10 11 10 14 L10 18 C10 21 12 23 16 23 C20 23 22 21 22 18 L22 14 C22 11 20 8 16 8Z" fill="#a3e635" opacity="0.8"/>
  <circle cx="13" cy="14" r="1.5" fill="#050507"/>
  <circle cx="19" cy="14" r="1.5" fill="#050507"/>
  <path d="M9 12 L6 9 M9 16 L5 16 M9 20 L6 23" stroke="#a3e635" stroke-width="1.5" stroke-linecap="round" opacity="0.6"/>
  <path d="M23 12 L26 9 M23 16 L27 16 M23 20 L26 23" stroke="#a3e635" stroke-width="1.5" stroke-linecap="round" opacity="0.6"/>
  <path d="M14 23 L13 27 M18 23 L19 27" stroke="#a3e635" stroke-width="1.5" stroke-linecap="round" opacity="0.6"/>
</svg>
